<svg xmlns="http://www.w3.org/2000/svg" width="512" height="512" viewBox="0 0 512 512"><path fill="#FC0" d="M512 472c0 22.1-17.9 40-40 40H40c-22.1 0-40-17.9-40-40V40C0 17.9 17.9 0 40 0h432c22.1 0 40 17.9 40 40v432z"/><path fill="#FFF" d="M0 275.2h512V347H0z"/><path fill="#FFC200" d="M0 293.9h512v2H0zM0 310.2h512v2H0zM0 328.6h512v2H0z"/><path fill="none" d="M0 323.7h512v2H0z"/><path fill="#D40511" d="M153.5 320.6h-13.2v.5c0 1.3.4 2.3 1.1 3.1.7.8 1.6 1.2 2.7 1.2 1.7 0 3.1-.9 4.1-2.7l4.7.8c-.9 1.9-2.1 3.3-3.7 4.3-1.5.9-3.2 1.4-5.2 1.4-2.6 0-4.7-.8-6.4-2.5-1.6-1.7-2.5-3.8-2.5-6.6 0-2.7.7-5 2.2-7.1 2-2.8 4.9-4.2 8.6-4.2 2.4 0 4.3.7 5.7 2.2 1.4 1.5 2.1 3.5 2.1 6.2.2 1.2.1 2.4-.2 3.4zm-4.4-3.2v-.5c0-1.4-.3-2.5-1-3.2-.6-.7-1.5-1.1-2.6-1.1s-2.1.4-2.9 1.2c-.9.8-1.4 2-1.7 3.6h8.2zM174.9 319l5.6.8c-1.1 3-2.7 5.3-4.9 6.9-2.2 1.6-4.7 2.4-7.6 2.4-3.3 0-5.9-1-7.7-3-1.8-2-2.8-4.8-2.8-8.6 0-3.1.6-5.8 1.9-8.4 1.2-2.5 3-4.5 5.2-5.8 2.2-1.3 4.6-2 7.2-2 2.9 0 5.3.8 7 2.3 1.8 1.6 2.9 3.7 3.2 6.4l-5.3.5c-.3-1.6-.9-2.7-1.7-3.4-.8-.7-2-1.1-3.3-1.1-1.5 0-3 .5-4.3 1.4-1.3.9-2.4 2.4-3.2 4.3-.8 2-1.2 3.9-1.2 5.9 0 2.1.5 3.8 1.5 5 1 1.2 2.3 1.8 3.9 1.8 1.4 0 2.7-.5 3.9-1.4 1.2-.8 2.1-2.2 2.6-4zM184.3 318.1c0-1.6.2-3.3.7-5 .6-2.4 1.6-4.4 2.8-6.1 1.3-1.7 2.9-3.1 4.8-4.1 1.9-1 4.1-1.5 6.6-1.5 3.3 0 6 1 8 3.1s3.1 4.8 3.1 8.2c0 2.8-.7 5.6-2 8.2-1.3 2.6-3.1 4.7-5.4 6.1-2.3 1.4-4.9 2.1-7.7 2.1-2.5 0-4.6-.6-6.3-1.7-1.7-1.1-2.9-2.5-3.6-4.2-.6-1.7-1-3.3-1-5.1zm5.5-.1c0 1.8.6 3.4 1.7 4.6 1.1 1.2 2.6 1.9 4.4 1.9 1.5 0 2.9-.5 4.3-1.5s2.5-2.5 3.4-4.5c.9-2 1.3-3.9 1.3-5.8 0-2.1-.6-3.8-1.7-5-1.1-1.2-2.6-1.8-4.3-1.8-2.7 0-4.9 1.3-6.6 3.8-1.7 2.6-2.5 5.3-2.5 8.3zM227.2 328.7H222l-1-22.4-4.3 22.4h-5l5.6-26.8h7.9l.8 18.8 9.2-18.8h8l-5.6 26.8h-5l5.3-22.3-10.7 22.3zM258.4 328.7h-5.2l-1-22.4-4.3 22.4h-5l5.6-26.8h7.9l.8 18.8 9.2-18.8h8l-5.6 26.8h-5l5.3-22.3-10.7 22.3zM274.2 328.7l5.6-26.8h19.9l-.9 4.5h-14.4l-1.3 6.1H297l-.9 4.5h-13.9l-1.7 7.3h15.6l-1 4.5h-20.9zM304.9 328.7h-5.5l5.6-26.8h11.9c2.1 0 3.6.2 4.8.6 1.1.4 2.1 1.2 2.8 2.3.7 1.1 1.1 2.5 1.1 4.1 0 2.3-.7 4.2-2.1 5.6-1.4 1.5-3.4 2.4-6.2 2.8.7.6 1.4 1.5 2 2.5 1.2 2.1 2.6 5.1 4.1 8.9h-5.9c-.5-1.5-1.4-3.9-2.8-7.1-.8-1.7-1.6-2.9-2.4-3.5-.5-.4-1.4-.5-2.7-.5h-2.3l-2.4 11.1zm3.1-15.2h2.9c3 0 4.9-.2 5.9-.5 1-.4 1.7-.9 2.3-1.7s.8-1.5.8-2.4c0-1-.4-1.7-1.2-2.2-.5-.3-1.5-.4-3.2-.4h-6.1l-1.4 7.2zM345.8 319l5.6.8c-1.1 3-2.7 5.3-4.9 6.9-2.2 1.6-4.7 2.4-7.6 2.4-3.3 0-5.8-1-7.7-3-1.8-2-2.8-4.8-2.8-8.6 0-3.1.6-5.8 1.9-8.4 1.2-2.5 3-4.5 5.2-5.8 2.2-1.3 4.6-2 7.2-2 2.9 0 5.3.8 7 2.3 1.8 1.6 2.8 3.7 3.2 6.4l-5.3.5c-.3-1.6-.9-2.7-1.7-3.4-.8-.7-2-1.1-3.3-1.1-1.5 0-3 .5-4.3 1.4-1.3.9-2.4 2.4-3.2 4.3-.8 2-1.2 3.9-1.2 5.9 0 2.1.5 3.8 1.5 5 1 1.2 2.3 1.8 3.9 1.8 1.4 0 2.7-.5 3.9-1.4 1.1-.8 2-2.2 2.6-4zM353.4 328.7l5.6-26.8h19.9l-.9 4.5h-14.4l-1.3 6.1h13.9l-.9 4.5h-13.9l-1.7 7.3h15.6l-1 4.5h-20.9z"/><g fill="#D40511"><path d="M198.9 224.5c4.5-9.1 8.3-17 10-20.4 8.1-16.3-.3-39.1-28.3-39.1h-92l-15.9 32.3h85.8c6.7 0 9.1 1.4 7.1 5.6-2 4.1-6.2 12.7-7.4 15.1-1.4 2.9-2.1 6.5 2.4 6.5h38.3z"/><path d="M141.6 227.5c-4.5 0-4.9-3-3.8-5.3.9-1.9 6.9-14.1 8.1-16.4 1.4-2.9 1-5.9-5.9-5.9h-38.9l-29.3 59.6H149c21.1 0 36.4-7.6 46.9-28.9.5-1 1-2.1 1.5-3.1h-55.8zM206.3 227.5l-15.7 32.1h47.9l15.8-32.1h-48zM273.7 227.5L258 259.6h47.9l15.8-32.1h-48zM323.2 224.5l29.2-59.5h-47.9l-15.8 32.3h-19.6L285 165h-48l-29.1 59.5h115.3zM364.6 165h48l-29.3 59.5h-47.9l29.2-59.5zM333.9 227.5h107.3l-15.7 32h-79.1c-16.5 0-21.8-12.6-15.9-24.8.5-1.3 3.4-7.2 3.4-7.2zM80 227.5l-4.6 9.5H0v-9.5h80zM74.5 238.8l-4.7 9.5H0v-9.5h74.5zM68.9 250.1l-4.7 9.5H0v-9.5h68.9zM512 237h-68.8l4.6-9.5H512zM512 248.3h-74.4l4.6-9.5H512zM512 259.6h-80l4.7-9.5H512z"/></g></svg>